<svg width="22" height="20" viewBox="0 0 22 20" fill="none" xmlns="http://www.w3.org/2000/svg">
<path d="M19.5204 2.27343C18.9935 1.74648 18.368 1.32848 17.6796 1.04329C16.9912 0.758105 16.2533 0.61132 15.5082 0.61132C14.763 0.61132 14.0252 0.758105 13.3368 1.04329C12.6483 1.32848 12.0228 1.74648 11.496 2.27343L10.9999 2.76952L10.5038 2.27343C9.97694 1.74648 9.35145 1.32848 8.66302 1.04329C7.9746 0.758105 7.23675 0.61132 6.49159 0.61132C5.74644 0.61132 5.00858 0.758105 4.32016 1.04329C3.63174 1.32848 3.00624 1.74648 2.47938 2.27343C0.778213 3.97411 0.481383 6.59423 1.68638 9.2827C3.15513 12.561 10.034 18.8608 10.326 19.1274C10.5102 19.2955 10.7505 19.3886 10.9999 19.3886C11.2492 19.3886 11.4895 19.2955 11.6737 19.1274C11.9657 18.8608 18.8446 12.561 20.3133 9.28222C21.5184 6.59423 21.2216 3.97411 19.5204 2.27343ZM18.4892 8.46435C17.5194 10.6274 13.2401 14.915 10.9999 17.0244C8.75966 14.915 4.48134 10.6289 3.51063 8.46483C3.10243 7.55224 2.32118 5.25976 3.89344 3.68749C4.58252 2.99843 5.5171 2.61132 6.49159 2.61132C7.46608 2.61132 8.40066 2.99843 9.08973 3.68749L10.2929 4.89062C10.3857 4.9835 10.4959 5.05718 10.6173 5.10745C10.7386 5.15771 10.8686 5.18359 10.9999 5.18359C11.1312 5.18359 11.2613 5.15771 11.3826 5.10745C11.5039 5.05718 11.6141 4.9835 11.707 4.89062L12.9101 3.68749C13.6102 3.01966 14.5406 2.64709 15.5082 2.64709C16.4758 2.64709 17.4062 3.01966 18.1063 3.68749C19.6786 5.25976 18.8974 7.55224 18.4892 8.46435Z" fill="#6c5dd3"/>
</svg>
